<svg width="1280" height="832" viewBox="0 0 1280 832" fill="none" xmlns="http://www.w3.org/2000/svg">
<g clip-path="url(#clip0_55_125)">
<rect width="1280" height="832" fill="white"/>
<rect x="84" y="583" width="34" height="34" rx="17" fill="black" fill-opacity="0.07"/>
<rect x="353" y="191.73" width="46" height="46" rx="1" transform="rotate(-35.5272 353 191.73)" fill="#3E3333" fill-opacity="0.13"/>
<rect x="274.458" y="439.043" width="46" height="46" rx="1" transform="rotate(-64.6903 274.458 439.043)" fill="#3E3333" fill-opacity="0.13"/>
<rect x="63" y="336.73" width="46" height="46" rx="1" transform="rotate(-35.5272 63 336.73)" fill="#3E3333" fill-opacity="0.13"/>
<rect x="1020" y="643.73" width="46" height="46" rx="1" transform="rotate(-35.5272 1020 643.73)" fill="#3E3333" fill-opacity="0.13"/>
<rect x="1052" y="223.73" width="46" height="46" rx="1" transform="rotate(-35.5272 1052 223.73)" fill="#3E3333" fill-opacity="0.13"/>
<rect x="477.402" y="517.271" width="50" height="50" rx="25" transform="rotate(18.8211 477.402 517.271)" fill="#1E1E1E" fill-opacity="0.33"/>
<rect x="736.131" y="800" width="50" height="50" rx="1" transform="rotate(18.8211 736.131 800)" fill="#1E1E1E" fill-opacity="0.53"/>
<rect x="199" y="658.757" width="113" height="113" rx="29" transform="rotate(-24.4425 199 658.757)" fill="#EDEDED"/>
<rect x="602" y="290.757" width="113" height="113" rx="29" transform="rotate(-24.4425 602 290.757)" fill="#EDEDED"/>
<rect x="659" y="533.757" width="113" height="113" rx="56.5" transform="rotate(-24.4425 659 533.757)" fill="#EDEDED"/>
<rect x="843" y="61.7571" width="113" height="113" rx="56.5" transform="rotate(-24.4425 843 61.7571)" fill="#EDEDED"/>
<rect x="1089" y="462.757" width="113" height="113" rx="29" transform="rotate(-24.4425 1089 462.757)" fill="#EDEDED"/>
<rect x="63" y="97.7571" width="113" height="113" rx="29" transform="rotate(-24.4425 63 97.7571)" fill="#EDEDED"/>
</g>
<defs>
<clipPath id="clip0_55_125">
<rect width="1280" height="832" fill="white"/>
</clipPath>
</defs>
</svg>
